<svg width="26px" height="49px" viewBox="-1 0 26 49" version="1.1" xmlns="http://www.w3.org/2000/svg" xmlns:xlink="http://www.w3.org/1999/xlink">
    <!-- Generator: Sketch 42 (36781) - http://www.bohemiancoding.com/sketch -->
    <desc>Created with Sketch.</desc>
    <defs></defs>
    <g id="wheat" stroke="none" fill="none" fill-opacity="0.92" fill-rule="evenodd">
        <path d="M3.011577,23.3637 C2.70798265,23.3601209 2.41920225,23.4946606 2.22663021,23.7293983 C2.03405816,23.964136 1.95855032,24.2736493 2.021389,24.5707 C2.021389,24.5707 2.22678,25.5349 2.591675,26.6722 C2.95657,27.8096 3.415134,29.1174 4.263471,30.0394 C5.261087,31.1236 6.821612,31.8372 8.183209,32.4026 C9.544805,32.968 10.710434,33.3205 10.710434,33.3205 C11.0325331,33.4179119 11.3820262,33.3467967 11.6404501,33.1312594 C11.898874,32.915722 12.0315764,32.5846641 11.993577,32.2503 C11.993577,32.2503 11.860169,31.0697 11.530707,29.6898 C11.201246,28.3098 10.768113,26.7162 9.706574,25.6547 C8.645041,24.5931 7.053397,24.16 5.673561,23.8305 C4.293725,23.501 3.111182,23.3695 3.111182,23.3695 C3.07816643,23.3645057 3.04492145,23.3611682 3.011572,23.3595 L3.011577,23.3637 Z M4.376747,25.6254 C4.737832,25.6894 4.761471,25.6694 5.208739,25.7758 C6.456101,26.0736 7.86347,26.6415 8.292579,27.0706 C8.721682,27.4997 9.287656,28.9072 9.585487,30.1546 C9.672497,30.519 9.650187,30.52 9.708527,30.8323 C9.368854,30.7086 9.359204,30.7266 8.950751,30.5569 C7.690986,30.0338 6.252434,29.2471 5.736058,28.6858 C5.369004,28.2869 4.827092,27.0932 4.495882,26.0609 C4.420162,25.8249 4.436892,25.8364 4.376747,25.6254 L4.376747,25.6254 Z" id="Shape" fill="#5C6BC0"></path>
        <path d="M21.979435,23.3637 C21.9486973,23.365618 21.9180647,23.3689549 21.887635,23.3737 C21.887635,23.3737 20.705092,23.5052 19.325255,23.8347 C17.945419,24.1642 16.353776,24.5973 15.292242,25.6589 C14.230703,26.7204 13.797571,28.314 13.468109,29.694 C13.138648,31.0739 13.00524,32.2545 13.00524,32.2545 C12.9672406,32.5888641 13.099943,32.919922 13.3583669,33.1354594 C13.6167908,33.3509967 13.9662839,33.4221119 14.288383,33.3247 C14.288383,33.3247 15.454012,32.9722 16.815608,32.4068 C18.177204,31.8414 19.737729,31.1278 20.735345,30.0436 C21.583683,29.1216 22.042247,27.8138 22.407141,26.6764 C22.772036,25.5391 22.977428,24.5749 22.977428,24.5749 C23.0405933,24.2764908 22.9641268,23.9655679 22.769761,23.7304982 C22.5753952,23.4954285 22.2843813,23.3619138 21.979428,23.3679 L21.979435,23.3637 Z M20.622076,25.6254 C20.561926,25.8364 20.578656,25.8249 20.502941,26.0609 C20.171732,27.0932 19.629819,28.2869 19.262765,28.6858 C18.74639,29.2471 17.307837,30.0338 16.048073,30.5569 C15.63962,30.7266 15.629969,30.7086 15.290296,30.8323 C15.348646,30.52 15.326336,30.519 15.413337,30.1546 C15.711168,28.9072 16.277142,27.4997 16.706245,27.0706 C17.135353,26.6415 18.542722,26.0736 19.790085,25.7758 C20.237353,25.669 20.260991,25.6898 20.622076,25.6254 L20.622076,25.6254 Z" id="Shape" fill="#5C6BC0"></path>
        <path d="M3.011577,14.3638 C2.70798265,14.3602209 2.41920225,14.4947606 2.22663021,14.7294983 C2.03405816,14.964236 1.95855032,15.2737493 2.021389,15.5708 C2.021389,15.5708 2.22678,16.535 2.591675,17.6724 C2.956569,18.8097 3.415178,20.1176 4.263471,21.0395 C5.261087,22.1237 6.821612,22.8373 8.183209,23.4027 C9.544805,23.9682 10.710434,24.3207 10.710434,24.3207 C11.0325517,24.4181219 11.3820673,24.346996 11.6404971,24.1314335 C11.898927,23.9158711 12.0316136,23.5847807 11.993577,23.2504 C11.993577,23.2504 11.860169,22.0698 11.530707,20.6899 C11.201246,19.31 10.768156,17.7163 9.706574,16.6548 C8.645041,15.5932 7.053397,15.1601 5.673561,14.8306 C4.293725,14.5011 3.111182,14.3696 3.111182,14.3696 C3.07816643,14.3646057 3.04492145,14.3612682 3.011572,14.3596 L3.011577,14.3638 Z M4.376747,16.6255 C4.737832,16.6895 4.761471,16.6695 5.208739,16.7759 C6.456101,17.0737 7.86347,17.6417 8.292579,18.0708 C8.721639,18.4999 9.287656,19.9074 9.585487,21.1547 C9.672497,21.5191 9.650187,21.5201 9.708527,21.8324 C9.368854,21.7087 9.359204,21.7267 8.950751,21.557 C7.690986,21.0339 6.252434,20.2472 5.736058,19.686 C5.36896,19.2871 4.827093,18.0934 4.495882,17.061 C4.420162,16.825 4.436892,16.8365 4.376747,16.6255 L4.376747,16.6255 Z" id="Shape" fill="#5C6BC0"></path>
        <path d="M21.979435,14.3638 C21.9486973,14.365718 21.9180647,14.3690549 21.887635,14.3738 C21.887635,14.3738 20.705092,14.5053 19.325255,14.8348 C17.945419,15.1643 16.353776,15.5974 15.292242,16.659 C14.23066,17.7205 13.797571,19.3142 13.468109,20.6941 C13.138648,22.074 13.00524,23.2546 13.00524,23.2546 C12.9672034,23.5889807 13.09989,23.9200711 13.3583199,24.1356335 C13.6167497,24.351196 13.9662653,24.4223219 14.288383,24.3249 C14.288383,24.3249 15.454012,23.9724 16.815608,23.4069 C18.177204,22.8415 19.737729,22.1279 20.735345,21.0437 C21.583639,20.1218 22.042247,18.8139 22.407141,17.6766 C22.772036,16.5392 22.977428,15.575 22.977428,15.575 C23.0405933,15.2765908 22.9641268,14.9656679 22.769761,14.7305982 C22.5753952,14.4955285 22.2843813,14.3620138 21.979428,14.368 L21.979435,14.3638 Z M20.622076,16.6255 C20.561926,16.8365 20.578656,16.825 20.502941,17.061 C20.171731,18.0934 19.629863,19.2871 19.262765,19.686 C18.74639,20.2472 17.307837,21.0339 16.048073,21.557 C15.63962,21.7267 15.629969,21.7087 15.290296,21.8324 C15.348646,21.5201 15.326336,21.5191 15.413337,21.1547 C15.711168,19.9074 16.277185,18.4999 16.706245,18.0708 C17.135353,17.6417 18.542722,17.0737 19.790085,16.7759 C20.237353,16.6691 20.260991,16.6899 20.622076,16.6255 L20.622076,16.6255 Z" id="Shape" fill="#5C6BC0"></path>
        <path d="M3.011577,32.3636 C2.70800425,32.3600276 2.41924501,32.494554 2.22667718,32.7292671 C2.03410935,32.9639802 1.95858524,33.273464 2.021389,33.5705 C2.021389,33.5705 2.22678,34.5347 2.591675,35.6721 C2.95657,36.8095 3.415134,38.1173 4.263471,39.0392 C5.261087,40.1234 6.821612,40.837 8.183209,41.4024 C9.544805,41.9679 10.710434,42.3204 10.710434,42.3204 C11.0325517,42.4178219 11.3820673,42.346696 11.6404971,42.1311335 C11.898927,41.9155711 12.0316136,41.5844807 11.993577,41.2501 C11.993577,41.2501 11.860169,40.0695 11.530707,38.6897 C11.201246,37.3097 10.768113,35.7161 9.706574,34.6545 C8.645041,33.5929 7.053397,33.1598 5.673561,32.8303 C4.293725,32.5009 3.111182,32.3694 3.111182,32.3694 C3.07816643,32.3644057 3.04492145,32.3610682 3.011572,32.3594 L3.011577,32.3636 Z M4.376747,34.6252 C4.737832,34.6892 4.761471,34.6692 5.208739,34.7756 C6.456101,35.0734 7.86347,35.6414 8.292579,36.0705 C8.721682,36.4996 9.287656,37.9071 9.585487,39.1544 C9.672497,39.5188 9.650187,39.5198 9.708527,39.8321 C9.368854,39.7084 9.359204,39.7264 8.950751,39.5567 C7.690986,39.0336 6.252434,38.247 5.736058,37.6857 C5.369004,37.2868 4.827092,36.0931 4.495882,35.0607 C4.420162,34.8247 4.436892,34.8362 4.376747,34.6252 L4.376747,34.6252 Z" id="Shape" fill="#5C6BC0"></path>
        <path d="M21.979435,32.3636 C21.9486973,32.365518 21.9180647,32.3688549 21.887635,32.3736 C21.887635,32.3736 20.705092,32.5051 19.325255,32.8345 C17.945419,33.164 16.353776,33.5971 15.292242,34.6587 C14.230703,35.7203 13.797571,37.3139 13.468109,38.6939 C13.138648,40.0737 13.00524,41.2543 13.00524,41.2543 C12.9672034,41.5886807 13.09989,41.9197711 13.3583199,42.1353335 C13.6167497,42.350896 13.9662653,42.4220219 14.288383,42.3246 C14.288383,42.3246 15.454012,41.9721 16.815608,41.4066 C18.177204,40.8412 19.737729,40.1276 20.735345,39.0434 C21.583683,38.1215 22.042247,36.8137 22.407141,35.6763 C22.772036,34.5389 22.977428,33.5747 22.977428,33.5747 C23.0405582,33.2763055 22.9640754,32.9654123 22.7697138,32.7303672 C22.5753523,32.4953222 22.2843597,32.3618207 21.979428,32.3678 L21.979435,32.3636 Z M20.622076,34.6252 C20.561926,34.8362 20.578656,34.8247 20.502941,35.0607 C20.171732,36.0931 19.629819,37.2868 19.262765,37.6857 C18.74639,38.247 17.307837,39.0336 16.048073,39.5567 C15.63962,39.7264 15.629969,39.7084 15.290296,39.8321 C15.348646,39.5198 15.326336,39.5188 15.413337,39.1544 C15.711168,37.9071 16.277142,36.4996 16.706245,36.0705 C17.135353,35.6414 18.542722,35.0734 19.790085,34.7756 C20.237353,34.6688 20.260991,34.6896 20.622076,34.6252 L20.622076,34.6252 Z" id="Shape" fill="#5C6BC0"></path>
        <path d="M12.483787,42.3614 C12.2185652,42.3655382 11.9658521,42.4748784 11.781251,42.665363 C11.5966498,42.8558477 11.4952849,43.1118705 11.499459,43.3771 L11.499459,47.3477 C11.4943614,47.7083286 11.6838286,48.0437662 11.9953105,48.2255682 C12.3067924,48.4073701 12.6920316,48.4073701 13.0035135,48.2255682 C13.3149954,48.0437662 13.5044626,47.7083286 13.499365,47.3477 L13.499365,43.3771 C13.5036246,43.1064519 13.3979979,42.8456361 13.2066116,42.6542268 C13.0152253,42.4628176 12.754427,42.3571643 12.483787,42.3614 L12.483787,42.3614 Z" id="Shape" fill="#5C6BC0"></path>
        <path d="M10.513177,41.3614 C10.1528338,41.3567292 9.81784626,41.5463 9.63631288,41.8576208 C9.45477951,42.1689417 9.45477951,42.5538583 9.63631288,42.8651792 C9.81784626,43.1765 10.1528338,43.3660708 10.513177,43.3614 L14.485646,43.3614 C14.8459892,43.3660708 15.1809767,43.1765 15.3625101,42.8651792 C15.5440435,42.5538583 15.5440435,42.1689417 15.3625101,41.8576208 C15.1809767,41.5463 14.8459892,41.3567292 14.485646,41.3614 L10.513177,41.3614 L10.513177,41.3614 Z" id="Shape" fill="#5C6BC0"></path>
        <path d="M22.98134,9.3639 C22.5060126,9.37165539 22.1018401,9.71297017 22.014589,10.1803 L21.020495,15.1528 C20.9125701,15.6946129 21.2640429,16.2214064 21.8057541,16.3297598 C22.3474652,16.4381132 22.874518,16.0870429 22.983293,15.5454 L23.977388,10.5729 C24.0411721,10.274536 23.9652719,9.96337472 23.7712696,9.72789534 C23.5772673,9.49241597 23.2863867,9.35837974 22.98134,9.3639 L22.98134,9.3639 Z" id="Shape" fill="#5C6BC0"></path>
        <path d="M1.988187,9.3639 C1.68826546,9.36726665 1.40569136,9.5050775 1.21836955,9.73933853 C1.03104773,9.97359955 0.95876005,10.2795719 1.021436,10.5729 L2.01553,15.5454 C2.12394012,16.0874289 2.6512114,16.4389436 3.19322338,16.3305301 C3.73523536,16.2221166 4.08673912,15.6948289 3.978329,15.1528 L2.984235,10.1803 C2.89493745,9.70214034 2.47455776,9.35758066 1.988187,9.3639 L1.988187,9.3639 Z" id="Shape" fill="#5C6BC0"></path>
        <path d="M12.442773,5.364 C12.1422755,5.38092299 11.8653797,5.53228697 11.688903,5.7761 C11.688903,5.7761 11.033137,6.6806 10.376465,7.8561 C9.719793,9.0316 8.999576,10.4305 8.999576,11.8619 C8.999576,13.2934 9.719793,14.6941 10.376465,15.8696 C11.033137,17.0452 11.688903,17.9497 11.688903,17.9497 C11.8769359,18.2098619 12.1784192,18.3639493 12.499412,18.3639493 C12.8204048,18.3639493 13.1218881,18.2098619 13.309921,17.9497 C13.309921,17.9497 13.965687,17.0452 14.622359,15.8696 C15.279031,14.6941 15.999247,13.2934 15.999247,11.8619 C15.999247,10.4305 15.279031,9.0316 14.622359,7.8561 C13.965687,6.6806 13.309921,5.7761 13.309921,5.7761 C13.1100179,5.49988988 12.7831708,5.34456036 12.442773,5.364 L12.442773,5.364 Z M12.499413,8.235 C12.668781,8.5049 12.688027,8.4955 12.876348,8.8326 C13.469617,9.8947 13.999342,11.2436 13.999342,11.8619 C13.999342,12.4803 13.469617,13.8311 12.876348,14.8931 C12.688027,15.2302 12.668781,15.2208 12.499413,15.4907 C12.330045,15.2208 12.310799,15.2302 12.122477,14.8931 C11.529209,13.8311 10.999484,12.4803 10.999484,11.8619 C10.999484,11.2436 11.529209,9.8947 12.122478,8.8326 C12.3108,8.4955 12.330046,8.5049 12.499414,8.235 L12.499413,8.235 Z" id="Shape" fill="#5C6BC0"></path>
        <path d="M4.960705,1.364 C4.6786073,1.37513505 4.4143579,1.50499049 4.23318383,1.72151295 C4.05200975,1.93803541 3.97079154,2.22105082 4.009577,2.5007 L5.005623,10.4733 C5.04356286,10.8332156 5.27298588,11.1445511 5.60551253,11.2873722 C5.93803919,11.4301933 6.32177962,11.3822133 6.60890735,11.1619151 C6.89603509,10.941617 7.04174463,10.5833777 6.989905,10.2252 L5.993859,2.2527 C5.93584029,1.7313432 5.48486008,1.34341835 4.960705,1.364 L4.960705,1.364 Z" id="Shape" fill="#5C6BC0"></path>
        <path d="M12.483787,0.3621 C12.2185828,0.3662383 11.9658851,0.475564709 11.7812868,0.666027663 C11.5966885,0.856490616 11.4953117,1.11248765 11.499459,1.3777 L11.499459,6.3484 C11.4943614,6.70902861 11.6838286,7.0444662 11.9953105,7.22626816 C12.3067924,7.40807011 12.6920316,7.40807011 13.0035135,7.22626816 C13.3149954,7.0444662 13.5044626,6.70902861 13.499365,6.3484 L13.499365,1.3777 C13.5035972,1.10706915 13.3979584,0.846279449 13.2065752,0.654892055 C13.0151919,0.46350466 12.7544094,0.357865045 12.483787,0.3621 L12.483787,0.3621 Z" id="Shape" fill="#5C6BC0"></path>
        <path d="M20.008824,1.364 C19.4957851,1.35885801 19.0620817,1.74280855 19.004965,2.2527 L18.008918,10.2252 C17.9570784,10.5833777 18.1027879,10.941617 18.3899156,11.1619151 C18.6770434,11.3822133 19.0607838,11.4301933 19.3933105,11.2873722 C19.7258371,11.1445511 19.9552601,10.8332156 19.9932,10.4733 L20.989246,2.5007 C21.0285047,2.2161072 20.9434827,1.92837494 20.7558476,1.71083115 C20.5682126,1.49328735 20.296088,1.36694421 20.008824,1.364 L20.008824,1.364 Z" id="Shape" fill="#5C6BC0"></path>
        <path d="M1.021436,19.3638 C0.668710759,19.3561669 0.338061772,19.5349618 0.151320627,19.8343056 C-0.0354205176,20.1336493 -0.0506198524,20.5092451 0.111323,20.8227 L2.09951,24.7973 C2.25930993,25.1168803 2.57745989,25.3269297 2.93411587,25.3483247 C3.29077185,25.3697197 3.63174932,25.1992099 3.82860537,24.9010247 C4.02546142,24.6028395 4.04828893,24.2222803 3.888489,23.9027 L1.900302,19.9282 C1.73666481,19.5898691 1.39716599,19.371846 1.021436,19.3638 L1.021436,19.3638 Z" id="Shape" fill="#5C6BC0"></path>
        <path d="M23.948092,19.3638 C23.583039,19.3825256 23.2572855,19.5989354 23.098522,19.9282 L21.110334,23.9027 C20.9505341,24.2222803 20.9733616,24.6028395 21.1702176,24.9010247 C21.3670737,25.1992099 21.7080512,25.3697197 22.0647071,25.3483247 C22.4213631,25.3269297 22.7395131,25.1168803 22.899313,24.7973 L24.887501,20.8227 C25.0523848,20.504513 25.0344161,20.1224203 24.8403991,19.8211125 C24.6463822,19.5198046 24.3059786,19.3453458 23.948092,19.3638 L23.948092,19.3638 Z" id="Shape" fill="#5C6BC0"></path>
        <path d="M1.021436,28.3636 C0.668681543,28.3559478 0.337999688,28.5347559 0.151252079,28.8341305 C-0.0354955304,29.1335052 -0.0506691293,29.5091372 0.111323,29.8226 L2.09951,33.7971 C2.25930993,34.1166803 2.57745989,34.3267297 2.93411587,34.3481247 C3.29077185,34.3695197 3.63174932,34.1990099 3.82860537,33.9008247 C4.02546142,33.6026395 4.04828893,33.2220803 3.888489,32.9025 L1.900302,28.928 C1.73666481,28.5896691 1.39716599,28.371646 1.021436,28.3636 L1.021436,28.3636 Z" id="Shape" fill="#5C6BC0"></path>
        <path d="M23.948092,28.3636 C23.583039,28.3823256 23.2572855,28.5987354 23.098522,28.928 L21.110334,32.9025 C20.8633047,33.3965283 21.0635245,33.9972803 21.5575374,34.2443173 C22.0515503,34.4913543 22.6522837,34.2911283 22.899313,33.7971 L24.887501,29.8226 C25.0524356,29.5044052 25.0344933,29.1222752 24.8404693,28.8209359 C24.6464454,28.5195965 24.3060078,28.3451251 23.948092,28.3636 L23.948092,28.3636 Z" id="Shape" fill="#5C6BC0"></path>
    </g>
</svg>
