<svg width="82px" height="79px" viewBox="0 0 82 79" version="1.1" xmlns="http://www.w3.org/2000/svg" xmlns:xlink="http://www.w3.org/1999/xlink">
    <!-- Generator: Sketch 42 (36781) - http://www.bohemiancoding.com/sketch -->
    <desc>Created with Sketch.</desc>
    <defs></defs>
    <g id="barn" stroke="none" fill="none">
        <polygon id="Shape" points="38.38 26.99 28.91 22.14 28.91 31.84"></polygon>
        <polygon id="Shape" points="31.35 20.91 40.81 25.75 50.27 20.91"></polygon>
        <polygon id="Shape" points="40.81 28.24 31.35 33.08 50.27 33.08"></polygon>
        <polygon id="Shape" points="43.24 26.99 52.71 31.84 52.71 22.14"></polygon>
        <path d="M26.33,18.69 L26.33,35.48 L55.33,35.48 L55.33,18.69 L26.33,18.69 Z M38.38,27 L28.91,31.85 L28.91,22.15 L38.38,27 Z M31.38,20.91 L50.27,20.91 L40.81,25.75 L31.38,20.91 Z M40.84,28.24 L50.3,33.08 L31.35,33.08 L40.84,28.24 Z M43.24,27 L52.71,22.15 L52.71,31.85 L43.24,27 Z" id="Shape" fill-opacity="0.92" fill="#5C6BC0" fill-rule="nonzero"></path>
        <polygon id="Shape" fill-opacity="0.92" fill="#5C6BC0" fill-rule="nonzero" points="4.74 38.93 0.31 35.8 15.63 13.1 41.01 0.93 66 12.55 81.31 35.61 77.25 38.93 62.49 16.42 40.81 6.46 19.14 17.66"></polygon>
        <polygon id="Shape" fill-opacity="0.92" fill="#5C6BC0" fill-rule="nonzero" points="76.81 37.09 76.81 77.68 5.51 77.68 5.51 37.09 3.62 37.09 3.62 78.74 78.72 78.74 78.72 37.09"></polygon>
        <polygon id="Shape" points="23.2 52.18 23.2 72.89 37.88 62.54"></polygon>
        <polygon id="Shape" points="40.64 65.06 26.07 75.33 40.64 75.33"></polygon>
        <polygon id="Shape" points="41.36 49.95 41.36 60.08 55.73 49.95"></polygon>
        <polygon id="Shape" points="40.64 49.95 26.37 49.95 40.64 60.01"></polygon>
        <polygon id="Shape" points="58.99 72.94 58.99 52.13 44.22 62.54"></polygon>
        <polygon id="Shape" points="41.36 75.33 56.03 75.33 41.36 64.99"></polygon>
        <path d="M19.51,46.26 L19.51,78.74 L62.51,78.74 L62.51,46.26 L19.51,46.26 Z M41.36,50 L55.73,50 L41.36,60.09 L41.36,50 Z M40.65,50 L40.65,60 L26.37,50 L40.65,50 Z M23.2,52.18 L37.88,62.54 L23.2,72.89 L23.2,52.18 Z M40.64,65.06 L40.64,75.33 L26.07,75.33 L40.64,65.06 Z M41.35,75.33 L41.35,65 L56,75.33 L41.35,75.33 Z M59,72.95 L44.22,62.54 L59,52.13 L59,72.95 Z" id="Shape" fill-opacity="0.92" fill="#5C6BC0" fill-rule="nonzero"></path>
    </g>
</svg>
