<svg xmlns="http://www.w3.org/2000/svg" data-name="Layer 1" viewBox="0 0 100 125" x="0px" y="0px"><defs><style>.cls-1{fill:none;}</style></defs><title>Barn</title><polygon class="cls-1" points="47.38 35.99 37.91 31.14 37.91 40.84 47.38 35.99"/><polygon class="cls-1" points="40.35 29.91 49.81 34.75 59.27 29.91 40.35 29.91"/><polygon class="cls-1" points="49.81 37.24 40.35 42.08 59.27 42.08 49.81 37.24"/><polygon class="cls-1" points="52.24 35.99 61.71 40.84 61.71 31.14 52.24 35.99"/><path d="M35.33,27.69V44.48h29V27.69ZM47.38,36l-9.47,4.85v-9.7Zm-7-6.09H59.27l-9.46,4.84Zm9.46,7.33,9.46,4.84H40.35ZM52.24,36l9.47-4.85v9.7Z"/><polygon points="13.74 47.93 9.31 44.8 24.63 22.1 50.01 9.93 75 21.55 90.31 44.61 86.25 47.93 71.49 25.42 49.81 15.46 28.14 26.66 13.74 47.93"/><polygon points="85.81 46.09 85.81 86.68 14.51 86.68 14.51 46.09 12.62 46.09 12.62 87.74 87.72 87.74 87.72 46.09 85.81 46.09"/><polygon class="cls-1" points="32.2 61.18 32.2 81.89 46.88 71.54 32.2 61.18"/><polygon class="cls-1" points="49.64 74.06 35.07 84.33 49.64 84.33 49.64 74.06"/><polygon class="cls-1" points="50.36 58.95 50.36 69.08 64.73 58.95 50.36 58.95"/><polygon class="cls-1" points="49.64 58.95 35.37 58.95 49.64 69.01 49.64 58.95"/><polygon class="cls-1" points="67.99 81.94 67.99 61.13 53.22 71.54 67.99 81.94"/><polygon class="cls-1" points="50.36 84.33 65.03 84.33 50.36 73.99 50.36 84.33"/><path d="M28.51,55.26V87.74h43V55.26ZM50.36,59H64.73L50.36,69.09Zm-.71,0V69L35.37,59ZM32.2,61.18,46.88,71.54,32.2,81.89ZM49.64,74.06V84.33H35.07Zm.71,10.27V74L65,84.33ZM68,81.95,53.22,71.54,68,61.13Z"/><text x="0" y="115" fill="#000000" font-size="5px" font-weight="bold" font-family="'Helvetica Neue', Helvetica, Arial-Unicode, Arial, Sans-serif">Created by Ron Scott</text><text x="0" y="120" fill="#000000" font-size="5px" font-weight="bold" font-family="'Helvetica Neue', Helvetica, Arial-Unicode, Arial, Sans-serif">from the Noun Project</text></svg>